<svg width="140" height="124" viewBox="0 0 140 124" fill="none" xmlns="http://www.w3.org/2000/svg">
<path d="M20.2461 99.6874L16.0118 96.9984C15.8173 94.6377 15.7565 92.2679 15.8298 89.9003L18.0263 90.4597L15.8583 89.083C15.978 86.1564 16.2432 84.2258 16.2432 84.2258C16.2432 84.2258 24.8045 89.7693 30.2647 97.2831L29.3336 103.638L31.5541 99.1938C32.1221 100.1 32.6323 101.041 33.0818 102.011C37.5805 111.808 38.0176 121.215 34.0581 123.022C30.0986 124.828 23.2419 118.351 18.7432 108.554C17.3486 105.517 16.5787 102.025 16.1798 98.6517L20.2461 99.6874Z" fill="#F0F0F0"/>
<path d="M11.5496 109.144L6.53046 109.024C5.13983 107.103 3.85899 105.106 2.69402 103.041L4.8644 102.388L2.2946 102.327C0.879511 99.7597 0.105469 97.9705 0.105469 97.9705C0.105469 97.9705 10.3089 98.3045 18.8793 101.923L21.3774 107.843L20.9739 102.895C21.93 103.378 22.8548 103.92 23.7426 104.519C32.6738 110.588 37.9258 118.415 35.4731 122.002C33.0204 125.589 23.792 123.577 14.8608 117.508C12.092 115.627 9.62227 113.034 7.53166 110.352L11.5496 109.144Z" fill="#F0F0F0"/>
<path d="M83.0844 35.1993L79.1512 34.738L77.763 46.731L74.2187 63.2923C73.7259 63.5315 73.3238 63.923 73.0722 64.4084C72.8205 64.8938 72.7329 65.4473 72.8223 65.9864C72.9117 66.5255 73.1734 67.0213 73.5683 67.4002C73.9633 67.7791 74.4704 68.0207 75.0143 68.0891C75.5581 68.1574 76.1095 68.0489 76.5865 67.7796C77.0635 67.5104 77.4404 67.0947 77.6613 66.5947C77.8821 66.0946 77.9351 65.5368 77.8123 65.0043C77.6894 64.4718 77.3974 63.993 76.9795 63.6394L80.5394 53.8806L83.0844 35.1993Z" fill="#FFB6B6"/>
<path d="M88.798 120.698H85.5574L84.0156 108.238L88.7984 108.239L88.798 120.698Z" fill="#FFB6B6"/>
<path d="M89.6241 123.829L79.1751 123.829V123.697C79.1752 122.622 79.6037 121.591 80.3664 120.831C81.1291 120.07 82.1636 119.643 83.2422 119.643H83.2424L89.6243 119.643L89.6241 123.829Z" fill="black"/>
<path d="M113.667 118.936L110.486 119.549L106.601 107.606L111.297 106.703L113.667 118.936Z" fill="#FFB6B6"/>
<path d="M115.074 121.854L104.815 123.829L104.79 123.7C104.585 122.644 104.81 121.551 105.414 120.66C106.018 119.77 106.953 119.155 108.012 118.951L108.012 118.951L114.278 117.744L115.074 121.854Z" fill="black"/>
<path d="M83.7166 15.5455L85.5995 19.1465L99.7014 16.046L98.1566 9.06418C96.9338 3.53781 92.0318 -0.453325 86.488 0.765557C80.9442 1.98444 78.3573 7.38594 79.5801 12.9123L81.8525 19.9703L84.1517 19.4648L83.7166 15.5455Z" fill="black"/>
<path d="M78.6873 55.2644C78.6873 55.2644 77.2991 62.1834 79.15 72.3313C81.001 82.4792 81.4637 86.8612 81.4637 86.8612C81.4637 86.8612 80.0755 88.4757 81.001 89.3982C81.9264 90.3207 81.001 92.1658 81.001 92.1658L83.0833 114.537L90.2556 113.384L89.3301 92.3964C89.3301 92.3964 90.2556 90.5514 89.7928 90.0901C89.3301 89.6288 90.2556 86.8612 90.2556 86.8612L91.4124 64.951L98.5847 88.9369C98.5847 88.9369 97.8906 89.8595 98.5847 90.5514C99.2788 91.2433 100.667 94.7028 100.667 94.7028L105.294 110.847L112.698 109.463L108.533 91.0126C108.533 91.0126 108.996 89.8595 108.302 89.1676C108.1 88.9559 107.952 88.6984 107.871 88.4172C107.791 88.136 107.78 87.8395 107.839 87.5531C107.839 87.5531 108.533 86.8612 107.608 85.9387C106.683 85.0162 106.22 81.326 106.22 81.326C106.22 81.326 105.526 56.6482 103.212 55.2644C100.898 53.8806 78.6873 55.2644 78.6873 55.2644Z" fill="black"/>
<path d="M89.1499 17.1035C92.7277 17.1035 95.6282 14.2122 95.6282 10.6457C95.6282 7.07922 92.7277 4.18799 89.1499 4.18799C85.5721 4.18799 82.6717 7.07922 82.6717 10.6457C82.6717 14.2122 85.5721 17.1035 89.1499 17.1035Z" fill="#FFB6B6"/>
<path d="M98.2782 18.9119C98.2782 18.9119 102.98 18.3629 104.369 19.7467L102.98 47.6533C102.98 47.6533 103.906 48.3452 103.443 49.9597C103.175 51.0193 103.175 52.1289 103.443 53.1885C103.443 53.1885 104.831 54.803 104.137 55.4949C103.443 56.1868 78.4557 55.7255 78.4557 55.7255C78.4557 55.7255 77.5303 54.1111 78.9185 53.1885C80.3066 52.266 79.6126 49.729 79.6126 49.729C79.6126 49.729 79.1498 49.0371 80.3066 47.884C81.4635 46.7308 82.3889 37.2748 82.3889 37.2748L79.3812 25.7431C79.3812 25.7431 82.4089 22.3366 85.8694 22.0795L98.2782 18.9119Z" fill="#004900"/>
<path d="M82.9653 25.9019L79.3808 25.7432C79.3808 25.7432 77.2985 29.8946 77.0672 33.5847L75.7929 47.3508L84.0081 48.5759L82.9653 25.9019Z" fill="#004900"/>
<path d="M83.5989 10.9661L81.1924 7.8798C81.0505 7.23 81.1723 6.55062 81.5314 5.99014C81.8905 5.42966 82.4575 5.03365 83.1086 4.88866L92.1994 2.88987C92.8513 2.74842 93.5329 2.86993 94.0952 3.22785C94.6574 3.58577 95.0548 4.151 95.2003 4.80003L95.2052 4.82233L94.5542 8.54918L94.4399 8.5288C88.7981 7.52608 87.191 7.87879 83.6909 10.8872L83.5989 10.9661Z" fill="black"/>
<path d="M107.811 60.2785L107.377 42.1184L106.915 29.2029L101.362 29.8948L104.344 60.7641C104.027 61.1611 103.836 61.6439 103.797 62.1499C103.758 62.656 103.872 63.1621 104.124 63.6029C104.377 64.0437 104.756 64.3988 105.213 64.6224C105.67 64.846 106.184 64.9278 106.689 64.8571C107.193 64.7865 107.664 64.5667 108.042 64.2262C108.419 63.8857 108.686 63.4402 108.807 62.9471C108.928 62.454 108.897 61.9362 108.72 61.4604C108.542 60.9847 108.226 60.573 107.811 60.2785Z" fill="#FFB6B6"/>
<path d="M100.319 20.1362L104.37 19.7468C104.37 19.7468 105.064 19.7468 105.758 22.0532C106.452 24.3595 110.268 48.7347 110.268 48.7347L101.825 49.4986L100.319 20.1362Z" fill="#004900"/>
<path d="M75.1522 48.9516H74.6108V34.1678C74.6108 33.0441 74.3888 31.9315 73.9574 30.8934C73.5261 29.8553 72.8938 28.912 72.0967 28.1175C71.2997 27.3229 70.3534 26.6927 69.312 26.2627C68.2706 25.8326 67.1545 25.6113 66.0272 25.6113H34.6064C33.4792 25.6113 32.363 25.8326 31.3216 26.2626C30.2802 26.6926 29.3339 27.3229 28.5369 28.1174C27.7398 28.912 27.1075 29.8552 26.6762 30.8933C26.2448 31.9315 26.0228 33.0441 26.0228 34.1678V115.273C26.0228 117.542 26.9271 119.718 28.5368 121.323C30.1466 122.928 32.3298 123.829 34.6064 123.829H66.0272C68.3037 123.829 70.487 122.928 72.0967 121.323C73.7065 119.719 74.6108 117.542 74.6108 115.273V59.4749H75.1522V48.9516Z" fill="#353535"/>
<path d="M66.374 27.8377H62.2726C62.4612 28.2986 62.5332 28.7987 62.4822 29.294C62.4313 29.7892 62.2589 30.2643 61.9803 30.6775C61.7018 31.0907 61.3255 31.4293 60.8848 31.6634C60.444 31.8975 59.9523 32.02 59.4529 32.02H41.4523C40.9529 32.02 40.4612 31.8975 40.0204 31.6634C39.5797 31.4293 39.2034 31.0907 38.9249 30.6775C38.6463 30.2643 38.4739 29.7892 38.423 29.294C38.372 28.7987 38.444 28.2986 38.6326 27.8376H34.8019C33.1018 27.8376 31.4714 28.5109 30.2692 29.7092C29.0671 30.9075 28.3917 32.5328 28.3917 34.2275V115.214C28.3917 116.053 28.5575 116.884 28.8797 117.659C29.2018 118.434 29.674 119.139 30.2692 119.732C30.8644 120.325 31.5711 120.796 32.3488 121.117C33.1265 121.438 33.9601 121.603 34.8019 121.603H66.374C67.2158 121.603 68.0494 121.438 68.8271 121.117C69.6048 120.796 70.3114 120.325 70.9067 119.732C71.5019 119.139 71.9741 118.434 72.2962 117.659C72.6184 116.884 72.7842 116.053 72.7842 115.214V34.2275C72.7842 33.3884 72.6184 32.5575 72.2962 31.7822C71.9741 31.007 71.5019 30.3026 70.9067 29.7092C70.3114 29.1158 69.6048 28.6452 68.8271 28.3241C68.0494 28.0029 67.2158 27.8377 66.374 27.8377Z" fill="white"/>
<path d="M45.5189 57.2697L46.3919 60.2843L57.5482 60.0881L57.4505 54.5646C57.3731 50.1926 54.2734 46.4218 49.8876 46.499C45.5018 46.5761 42.7131 50.2722 42.7905 54.6442L43.4276 60.3364L45.2466 60.3044L45.5189 57.2697Z" fill="black"/>
<path d="M50.3867 59.3779C53.1512 59.3779 55.3922 57.1439 55.3922 54.3882C55.3922 51.6324 53.1512 49.3984 50.3867 49.3984C47.6222 49.3984 45.3811 51.6324 45.3811 54.3882C45.3811 57.1439 47.6222 59.3779 50.3867 59.3779Z" fill="#FFB6B6"/>
<path d="M60.3501 62.1691L60.2367 64.2678C57.8344 66.7588 54.5573 68.225 51.0936 68.3588C47.6299 68.4925 44.2489 67.2833 41.6605 64.9851C41.5448 64.8836 41.4314 64.7775 41.3203 64.6691C42.0144 63.9819 43.9302 62.2844 46.0564 62.1276L55.6442 61.5256C55.6442 61.5256 59.2765 61.1012 60.3501 62.1691Z" fill="#E4E4E4"/>
<path d="M55.8667 50.8845C55.86 50.5024 55.74 50.1309 55.5219 49.8167C55.4988 49.7844 55.4757 49.7544 55.4525 49.7244C55.267 49.4885 55.0294 49.2984 54.758 49.1692C54.4867 49.04 54.1891 48.975 53.8884 48.9795L50.2907 49.044L46.6953 49.1063C46.1802 49.1166 45.6902 49.3298 45.3325 49.6994C44.9748 50.069 44.7785 50.5647 44.7866 51.0782L45.6426 52.7964L46.1354 53.7835L46.2164 53.7374C49.3282 51.9938 50.6007 51.9708 54.7191 53.5921L54.8024 53.6244L55.1286 52.7918L55.8689 50.9029L55.8667 50.8845Z" fill="black"/>
<path d="M61.1602 63.2093C60.1337 64.5178 58.8741 65.6264 57.4445 66.4797L57.2201 62.4713L60.3504 62.1692C60.3504 62.1692 60.7253 62.1692 61.1602 63.2093Z" fill="#E4E4E4"/>
<path d="M50.5755 68.5946C47.2319 68.5984 44.0039 67.3749 41.5074 65.1577C41.3895 65.0543 41.273 64.9454 41.159 64.834C39.8151 63.5687 38.7459 62.042 38.0176 60.3483C37.2893 58.6546 36.9175 56.83 36.925 54.9873C36.925 51.3784 38.3632 47.9173 40.9231 45.3654C43.4831 42.8135 46.9552 41.3799 50.5755 41.3799C54.1959 41.3799 57.668 42.8135 60.2279 45.3654C62.7879 47.9173 64.2261 51.3784 64.2261 54.9873C64.2375 58.0194 63.2215 60.9666 61.3428 63.3513C60.0669 64.9847 58.4337 66.3061 56.5677 67.2148C54.7018 68.1234 52.6523 68.5954 50.5755 68.5946ZM50.5755 41.8411C47.0791 41.8451 43.7271 43.2314 41.2547 45.6959C38.7824 48.1604 37.3917 51.5019 37.3877 54.9873C37.3805 56.768 37.7401 58.5312 38.444 60.1678C39.148 61.8045 40.1814 63.2797 41.4804 64.5021C41.5909 64.61 41.7013 64.7133 41.8139 64.812C43.163 66.0044 44.7428 66.9088 46.4558 67.4693C48.1689 68.0298 49.979 68.2347 51.7746 68.0712C53.5701 67.9078 55.313 67.3794 56.8959 66.5188C58.4788 65.6582 59.8681 64.4836 60.9782 63.0673C62.793 60.7636 63.7744 57.9164 63.7634 54.9873C63.7594 51.5019 62.3687 48.1604 59.8964 45.6959C57.424 43.2314 54.0719 41.8451 50.5755 41.8411Z" fill="#353535"/>
<path d="M62.8469 87.4599H38.7991C38.5593 87.4599 38.3219 87.4129 38.1004 87.3214C37.8788 87.2299 37.6775 87.0958 37.508 86.9268C37.3384 86.7578 37.2039 86.5571 37.1122 86.3363C37.0204 86.1155 36.9732 85.8788 36.9732 85.6398C36.9732 85.4007 37.0204 85.164 37.1122 84.9432C37.2039 84.7224 37.3384 84.5217 37.508 84.3527C37.6775 84.1837 37.8788 84.0496 38.1004 83.9581C38.3219 83.8667 38.5593 83.8196 38.7991 83.8196H62.8469C63.0867 83.8196 63.3241 83.8667 63.5456 83.9581C63.7672 84.0496 63.9685 84.1837 64.138 84.3527C64.3076 84.5217 64.4421 84.7224 64.5339 84.9432C64.6256 85.164 64.6728 85.4007 64.6728 85.6398C64.6728 85.8788 64.6256 86.1155 64.5339 86.3363C64.4421 86.5571 64.3076 86.7578 64.138 86.9268C63.9685 87.0958 63.7672 87.2299 63.5456 87.3214C63.3241 87.4129 63.0867 87.4599 62.8469 87.4599Z" fill="#326A32"/>
<path d="M62.8469 93.2258H38.7991C38.3149 93.2258 37.8504 93.034 37.508 92.6927C37.1655 92.3513 36.9732 91.8884 36.9732 91.4056C36.9732 90.9229 37.1655 90.4599 37.508 90.1186C37.8504 89.7772 38.3149 89.5854 38.7991 89.5854H62.8469C63.3312 89.5854 63.7956 89.7772 64.138 90.1186C64.4805 90.4599 64.6728 90.9229 64.6728 91.4056C64.6728 91.8884 64.4805 92.3513 64.138 92.6927C63.7956 93.034 63.3312 93.2258 62.8469 93.2258Z" fill="#326A32"/>
<path d="M56.9915 81.6242H44.6523C44.1681 81.6242 43.7036 81.4325 43.3612 81.0911C43.0188 80.7498 42.8264 80.2868 42.8264 79.8041C42.8264 79.3213 43.0188 78.8584 43.3612 78.517C43.7036 78.1757 44.1681 77.9839 44.6523 77.9839H56.9915C57.4758 77.9839 57.9402 78.1757 58.2827 78.517C58.6251 78.8584 58.8175 79.3213 58.8175 79.8041C58.8175 80.2868 58.6251 80.7498 58.2827 81.0911C57.9402 81.4325 57.4758 81.6242 56.9915 81.6242Z" fill="#326A32"/>
<path d="M139.051 124H0.231365C0.170003 124 0.111158 123.976 0.0677687 123.932C0.0243793 123.889 0 123.83 0 123.769C0 123.708 0.0243793 123.649 0.0677687 123.606C0.111158 123.563 0.170003 123.539 0.231365 123.539H139.051C139.112 123.539 139.171 123.563 139.214 123.606C139.258 123.649 139.282 123.708 139.282 123.769C139.282 123.83 139.258 123.889 139.214 123.932C139.171 123.976 139.112 124 139.051 124Z" fill="#CACACA"/>
</svg>
